<mxfile host="app.diagrams.net" modified="2024-06-17T00:27:08.440Z" agent="Mozilla/5.0 (Windows NT 10.0; Win64; x64) AppleWebKit/537.36 (KHTML, like Gecko) Chrome/125.0.0.0 Safari/537.36" etag="aToc0_y49NcDP7jBOZww" version="24.5.4" type="github">
  <diagram name="PÃ¡gina-1" id="pv2GTEgUgIdMpaDRizBy">
    <mxGraphModel dx="1050" dy="565" grid="1" gridSize="10" guides="1" tooltips="1" connect="1" arrows="1" fold="1" page="1" pageScale="1" pageWidth="827" pageHeight="1169" math="0" shadow="0">
      <root>
        <mxCell id="0" />
        <mxCell id="1" parent="0" />
        <mxCell id="ZZBgqmPyld4O6EQfUw_0-5" value="&lt;p style=&quot;margin:0px;margin-top:6px;text-align:center;&quot;&gt;&lt;b&gt;Cliente&lt;/b&gt;&lt;/p&gt;&lt;hr size=&quot;1&quot; style=&quot;border-style:solid;&quot;&gt;&lt;p style=&quot;margin:0px;margin-left:8px;&quot;&gt;(Postman/Browser/Front-end Application)&lt;br&gt;&lt;/p&gt;" style="align=left;overflow=fill;html=1;dropTarget=0;whiteSpace=wrap;" vertex="1" parent="1">
          <mxGeometry x="30" y="320" width="180" height="90" as="geometry" />
        </mxCell>
        <mxCell id="ZZBgqmPyld4O6EQfUw_0-6" value="" style="shape=component;jettyWidth=8;jettyHeight=4;" vertex="1" parent="ZZBgqmPyld4O6EQfUw_0-5">
          <mxGeometry x="1" width="20" height="20" relative="1" as="geometry">
            <mxPoint x="-24" y="4" as="offset" />
          </mxGeometry>
        </mxCell>
        <mxCell id="ZZBgqmPyld4O6EQfUw_0-20" value="" style="edgeStyle=orthogonalEdgeStyle;rounded=0;orthogonalLoop=1;jettySize=auto;html=1;" edge="1" parent="1" source="ZZBgqmPyld4O6EQfUw_0-7" target="ZZBgqmPyld4O6EQfUw_0-10">
          <mxGeometry relative="1" as="geometry" />
        </mxCell>
        <mxCell id="ZZBgqmPyld4O6EQfUw_0-7" value="&lt;p style=&quot;margin:0px;margin-top:6px;text-align:center;&quot;&gt;&lt;b&gt;CreateUserController&lt;/b&gt;&lt;/p&gt;&lt;hr size=&quot;1&quot; style=&quot;border-style:solid;&quot;&gt;&lt;p style=&quot;margin:0px;margin-left:8px;&quot;&gt;(Spring REST Controller Layer)&lt;/p&gt;&lt;p style=&quot;margin:0px;margin-left:8px;&quot;&gt;&amp;nbsp;&lt;br&gt;- registerUser(userDto:UserDto)&lt;br&gt;- getAllUsers(): List&amp;lt;User&amp;gt;&lt;br&gt;&lt;/p&gt;" style="align=left;overflow=fill;html=1;dropTarget=0;whiteSpace=wrap;" vertex="1" parent="1">
          <mxGeometry x="280" y="315" width="186" height="100" as="geometry" />
        </mxCell>
        <mxCell id="ZZBgqmPyld4O6EQfUw_0-8" value="" style="shape=component;jettyWidth=8;jettyHeight=4;" vertex="1" parent="ZZBgqmPyld4O6EQfUw_0-7">
          <mxGeometry x="1" width="20" height="20" relative="1" as="geometry">
            <mxPoint x="-24" y="4" as="offset" />
          </mxGeometry>
        </mxCell>
        <mxCell id="ZZBgqmPyld4O6EQfUw_0-21" value="" style="edgeStyle=orthogonalEdgeStyle;rounded=0;orthogonalLoop=1;jettySize=auto;html=1;" edge="1" parent="1" source="ZZBgqmPyld4O6EQfUw_0-10" target="ZZBgqmPyld4O6EQfUw_0-12">
          <mxGeometry relative="1" as="geometry" />
        </mxCell>
        <mxCell id="ZZBgqmPyld4O6EQfUw_0-10" value="&lt;p style=&quot;margin:0px;margin-top:6px;text-align:center;&quot;&gt;&lt;b&gt;CreateUserService&lt;/b&gt;&lt;/p&gt;&lt;hr size=&quot;1&quot; style=&quot;border-style:solid;&quot;&gt;&lt;p style=&quot;margin:0px;margin-left:8px;&quot;&gt;(Service Layer)&lt;/p&gt;&lt;p style=&quot;margin:0px;margin-left:8px;&quot;&gt;&lt;br&gt;&lt;/p&gt;&lt;p style=&quot;margin:0px;margin-left:8px;&quot;&gt;- registerUser(userDto: UserDto) - getUsers(): List&amp;lt;User&amp;gt;&lt;br&gt;&lt;/p&gt;" style="align=left;overflow=fill;html=1;dropTarget=0;whiteSpace=wrap;" vertex="1" parent="1">
          <mxGeometry x="530" y="315" width="186" height="100" as="geometry" />
        </mxCell>
        <mxCell id="ZZBgqmPyld4O6EQfUw_0-11" value="" style="shape=component;jettyWidth=8;jettyHeight=4;" vertex="1" parent="ZZBgqmPyld4O6EQfUw_0-10">
          <mxGeometry x="1" width="20" height="20" relative="1" as="geometry">
            <mxPoint x="-24" y="4" as="offset" />
          </mxGeometry>
        </mxCell>
        <mxCell id="ZZBgqmPyld4O6EQfUw_0-22" value="" style="edgeStyle=orthogonalEdgeStyle;rounded=0;orthogonalLoop=1;jettySize=auto;html=1;" edge="1" parent="1" source="ZZBgqmPyld4O6EQfUw_0-12" target="ZZBgqmPyld4O6EQfUw_0-14">
          <mxGeometry relative="1" as="geometry" />
        </mxCell>
        <mxCell id="ZZBgqmPyld4O6EQfUw_0-12" value="&lt;p style=&quot;margin:0px;margin-top:6px;text-align:center;&quot;&gt;&lt;b&gt;UserRepository&lt;/b&gt;&lt;br&gt;&lt;/p&gt;&lt;hr size=&quot;1&quot; style=&quot;border-style:solid;&quot;&gt;&lt;p style=&quot;margin:0px;margin-left:8px;&quot;&gt;(JPA Repository Layer)&lt;br&gt;&lt;br&gt;&lt;/p&gt;&lt;p style=&quot;margin:0px;margin-left:8px;&quot;&gt;- save(user: User): User&lt;br&gt;- findAll(): List&amp;lt;User&amp;gt;&lt;br&gt;- existsByEmail(email: String): boolean&lt;br&gt;&lt;/p&gt;" style="align=left;overflow=fill;html=1;dropTarget=0;whiteSpace=wrap;" vertex="1" parent="1">
          <mxGeometry x="770" y="310" width="223" height="110" as="geometry" />
        </mxCell>
        <mxCell id="ZZBgqmPyld4O6EQfUw_0-13" value="" style="shape=component;jettyWidth=8;jettyHeight=4;" vertex="1" parent="ZZBgqmPyld4O6EQfUw_0-12">
          <mxGeometry x="1" width="20" height="20" relative="1" as="geometry">
            <mxPoint x="-24" y="4" as="offset" />
          </mxGeometry>
        </mxCell>
        <mxCell id="ZZBgqmPyld4O6EQfUw_0-23" value="" style="edgeStyle=orthogonalEdgeStyle;rounded=0;orthogonalLoop=1;jettySize=auto;html=1;" edge="1" parent="1" source="ZZBgqmPyld4O6EQfUw_0-14" target="ZZBgqmPyld4O6EQfUw_0-16">
          <mxGeometry relative="1" as="geometry" />
        </mxCell>
        <mxCell id="ZZBgqmPyld4O6EQfUw_0-14" value="&lt;p style=&quot;margin:0px;margin-top:6px;text-align:center;&quot;&gt;&lt;b&gt;JPA Entities&lt;/b&gt;&lt;br&gt;&lt;/p&gt;&lt;hr size=&quot;1&quot; style=&quot;border-style:solid;&quot;&gt;&lt;p style=&quot;margin:0px;margin-left:8px;&quot;&gt;- User&amp;nbsp;&lt;/p&gt;&lt;p style=&quot;margin:0px;margin-left:8px;&quot;&gt;- Phone&lt;br&gt;&lt;/p&gt;" style="align=left;overflow=fill;html=1;dropTarget=0;whiteSpace=wrap;" vertex="1" parent="1">
          <mxGeometry x="1040" y="320" width="180" height="90" as="geometry" />
        </mxCell>
        <mxCell id="ZZBgqmPyld4O6EQfUw_0-15" value="" style="shape=component;jettyWidth=8;jettyHeight=4;" vertex="1" parent="ZZBgqmPyld4O6EQfUw_0-14">
          <mxGeometry x="1" width="20" height="20" relative="1" as="geometry">
            <mxPoint x="-24" y="4" as="offset" />
          </mxGeometry>
        </mxCell>
        <mxCell id="ZZBgqmPyld4O6EQfUw_0-16" value="&lt;p style=&quot;margin:0px;margin-top:6px;text-align:center;&quot;&gt;&lt;b&gt;Data Base&lt;/b&gt;&lt;/p&gt;&lt;hr size=&quot;1&quot; style=&quot;border-style:solid;&quot;&gt;&lt;p style=&quot;margin:0px;margin-left:8px;&quot;&gt;(H2/SQL Database)&lt;br&gt;&lt;/p&gt;" style="align=left;overflow=fill;html=1;dropTarget=0;whiteSpace=wrap;" vertex="1" parent="1">
          <mxGeometry x="1260" y="320" width="180" height="90" as="geometry" />
        </mxCell>
        <mxCell id="ZZBgqmPyld4O6EQfUw_0-17" value="" style="shape=component;jettyWidth=8;jettyHeight=4;" vertex="1" parent="ZZBgqmPyld4O6EQfUw_0-16">
          <mxGeometry x="1" width="20" height="20" relative="1" as="geometry">
            <mxPoint x="-24" y="4" as="offset" />
          </mxGeometry>
        </mxCell>
        <mxCell id="ZZBgqmPyld4O6EQfUw_0-19" value="" style="endArrow=classic;html=1;rounded=0;entryX=0;entryY=0.5;entryDx=0;entryDy=0;exitX=1;exitY=0.5;exitDx=0;exitDy=0;" edge="1" parent="1" source="ZZBgqmPyld4O6EQfUw_0-5" target="ZZBgqmPyld4O6EQfUw_0-7">
          <mxGeometry width="50" height="50" relative="1" as="geometry">
            <mxPoint x="390" y="330" as="sourcePoint" />
            <mxPoint x="440" y="280" as="targetPoint" />
          </mxGeometry>
        </mxCell>
      </root>
    </mxGraphModel>
  </diagram>
</mxfile>
